<svg class="svg-icon" style="width: 1em;height: 1em;vertical-align: middle;fill: currentColor;overflow: hidden;" viewBox="0 0 1024 1024" version="1.1" xmlns="http://www.w3.org/2000/svg"><path d="M896 744c9.6 0 16 6.4 16 16 0 75.2-177.6 128-400 128s-400-52.8-400-128c0-9.6 6.4-16 16-16s16 6.4 16 16c0 48 164.8 96 368 96s368-48 368-96c0-9.6 8-16 16-16z m0-160c9.6 0 16 6.4 16 16 0 52.8-83.2 92.8-212.8 113.6-8 1.6-17.6-4.8-17.6-12.8-1.6-8 4.8-17.6 12.8-17.6 113.6-17.6 185.6-52.8 185.6-83.2 0-9.6 6.4-16 16-16z m-768 0c9.6 0 16 6.4 16 16 0 28.8 72 64 185.6 83.2 8 1.6 14.4 9.6 12.8 17.6-1.6 8-9.6 14.4-17.6 12.8C195.2 692.8 112 652.8 112 600c0-9.6 6.4-16 16-16z m0-176c9.6 0 16 6.4 16 16 0 28.8 72 64 187.2 83.2 8 1.6 14.4 9.6 12.8 17.6-1.6 8-9.6 14.4-17.6 12.8C195.2 516.8 112 476.8 112 424c0-9.6 6.4-16 16-16z m768 0c9.6 0 16 6.4 16 16 0 52.8-83.2 92.8-212.8 113.6-8 1.6-17.6-4.8-17.6-12.8s4.8-17.6 12.8-17.6c113.6-17.6 185.6-52.8 185.6-81.6 0-11.2 6.4-17.6 16-17.6z m-384-272c220.8 0 400 49.6 400 112s-179.2 112-400 112-400-49.6-400-112 179.2-112 400-112z m0 32c-104 0-203.2 11.2-273.6 32-33.6 9.6-59.2 20.8-76.8 32-12.8 8-17.6 12.8-17.6 16s4.8 8 17.6 17.6c17.6 11.2 43.2 22.4 76.8 32 72 20.8 169.6 32 273.6 32s203.2-11.2 273.6-32c33.6-9.6 59.2-20.8 76.8-32 12.8-8 17.6-14.4 17.6-17.6s-4.8-8-17.6-17.6c-17.6-11.2-43.2-22.4-76.8-32-70.4-19.2-168-30.4-273.6-30.4z" fill="#313131" /><path d="M644.8 428.8c11.2 11.2 11.2 28.8 0 38.4l-65.6 62.4H624c16 0 28.8 12.8 28.8 27.2 0 14.4-12.8 27.2-28.8 27.2h-84.8V640H624c16 0 28.8 12.8 28.8 27.2s-12.8 27.2-28.8 27.2h-84.8v83.2c0 14.4-12.8 27.2-28.8 27.2s-28.8-12.8-28.8-27.2v-83.2h-84.8c-16 0-28.8-12.8-28.8-27.2s12.8-27.2 28.8-27.2h84.8v-54.4h-84.8c-16 0-28.8-12.8-28.8-27.2 0-14.4 12.8-27.2 28.8-27.2h44.8l-65.6-62.4c-11.2-11.2-11.2-28.8 0-38.4s28.8-11.2 40 0l94.4 89.6 94.4-91.2c11.2-9.6 28.8-9.6 40 0z" fill="#3192F2" /></svg>