<svg class="svg-icon" style="width: 1em; height: 1em;vertical-align: middle;fill: currentColor;overflow: hidden;" viewBox="0 0 1024 1024" version="1.1" xmlns="http://www.w3.org/2000/svg"><path d="M808.219451 51.072319c51.072319 0 94.483791 40.857855 94.483791 94.483791l0 732.887781c0 51.072319-40.857855 94.483791-94.483791 94.483791L215.780549 972.927681c-51.072319 0-94.483791-40.857855-94.483791-94.483791L121.296758 145.55611c0-51.072319 40.857855-94.483791 94.483791-94.483791L808.219451 51.072319M808.219451 0 215.780549 0C134.064838 0 70.224439 63.840399 70.224439 145.55611l0 732.887781c0 79.162095 63.840399 145.55611 145.55611 145.55611l594.992519 0c79.162095 0 145.55611-63.840399 145.55611-145.55611L956.329177 145.55611C953.775561 63.840399 889.935162 0 808.219451 0L808.219451 0z"  /><path d="M264.299252 250.254364m-25.53616 0a1 1 0 1 0 51.072319 0 1 1 0 1 0-51.072319 0Z"  /><path d="M757.147132 275.790524 353.67581 275.790524c-15.321696 0-25.53616-10.214464-25.53616-25.53616l0 0c0-15.321696 10.214464-25.53616 25.53616-25.53616l406.024938 0c15.321696 0 25.53616 10.214464 25.53616 25.53616l0 0C782.683292 265.57606 772.468828 275.790524 757.147132 275.790524z"  /><path d="M266.852868 510.723192m-25.53616 0a1 1 0 1 0 51.072319 0 1 1 0 1 0-51.072319 0Z"  /><path d="M759.700748 536.259352 356.229426 536.259352c-15.321696 0-25.53616-10.214464-25.53616-25.53616l0 0c0-15.321696 10.214464-25.53616 25.53616-25.53616l406.024938 0c15.321696 0 25.53616 10.214464 25.53616 25.53616l0 0C785.236908 526.044888 775.022444 536.259352 759.700748 536.259352z"  /><path d="M266.852868 771.19202m-25.53616 0a1 1 0 1 0 51.072319 0 1 1 0 1 0-51.072319 0Z"  /><path d="M759.700748 796.72818 356.229426 796.72818c-15.321696 0-25.53616-10.214464-25.53616-25.53616l0 0c0-15.321696 10.214464-25.53616 25.53616-25.53616l406.024938 0c15.321696 0 25.53616 10.214464 25.53616 25.53616l0 0C785.236908 783.9601 775.022444 796.72818 759.700748 796.72818z"  /></svg>