<svg class="svg-icon" style="width: 1em; height: 1em;vertical-align: middle;fill: #fc4949;overflow: hidden;" viewBox="0 0 1024 1024" version="1.1" xmlns="http://www.w3.org/2000/svg"><path d="M801.989627 137.827065 217.080084 137.827065 20.154016 363.407754l0 380.676046c0 75.865875 61.449537 137.336902 137.314389 137.336902l706.347337 0c75.820849 0 137.314389-61.47205 137.314389-137.336902L1001.13013 363.407754 801.989627 137.827065zM744.725412 388.518664c0 129.297808-104.784508 234.083339-234.084363 234.083339-129.253806 0-234.039337-104.785531-234.039337-234.083339 0-8.525164 0.509606-16.874319 1.373277-25.133424L111.51991 363.385241l136.628774-160.964018 523.06194 0L913.663032 363.384218 743.352135 363.384218C744.215806 371.645368 744.725412 379.9935 744.725412 388.518664z"  /></svg>